<?xml version="1.0" encoding="UTF-8" standalone="no"?>
<svg width="1440px" height="1067px" viewBox="0 0 1440 1067" version="1.1" xmlns="http://www.w3.org/2000/svg" xmlns:xlink="http://www.w3.org/1999/xlink">
    <defs>
        <filter x="-50%" y="-50%" width="200%" height="200%" filterUnits="objectBoundingBox" id="filter-1">
            <feOffset dx="0" dy="5" in="SourceAlpha" result="shadowOffsetOuter1"></feOffset>
            <feGaussianBlur stdDeviation="15" in="shadowOffsetOuter1" result="shadowBlurOuter1"></feGaussianBlur>
            <feColorMatrix values="0 0 0 0 0   0 0 0 0 0   0 0 0 0 0  0 0 0 0.507048234 0" type="matrix" in="shadowBlurOuter1" result="shadowMatrixOuter1"></feColorMatrix>
            <feMerge>
                <feMergeNode in="shadowMatrixOuter1"></feMergeNode>
                <feMergeNode in="SourceGraphic"></feMergeNode>
            </feMerge>
        </filter>
    </defs>
    <g id="Page-1" stroke="none" stroke-width="1" fill="none" fill-rule="evenodd">
        <g id="UX-talks" stroke-width="0.3081" stroke="#FFFFFF">
            <g id="Main-banner" transform="translate(-167.000000, -94.000000)">
                <g id="lines" filter="url(#filter-1)" style="mix-blend-mode: soft-light;" transform="translate(894.077889, 579.512896) rotate(9.000000) translate(-894.077889, -579.512896) translate(61.077889, 125.512896)">
                    <g id="Layer_1">
                        <g id="Group">
                            <path d="M3.9976032,9.9475983e-14 C3.9976032,9.9475983e-14 160.180293,340.872131 714.054328,245.181265 C1260.48096,150.766276 1455.17736,625.180328 1587.52836,907.787354" id="Shape"></path>
                            <path d="M3.9976032,0.63793911 C4.63595206,5.31615925 162.946471,343.423888 711.288149,251.560656 C1252.18242,161.185948 1451.98562,621.990632 1589.44341,887.585948" id="Shape"></path>
                            <path d="M3.78482024,1.06323185 C5.06151798,10.4196721 165.499867,345.550351 708.309188,257.940047 C1243.45832,171.392974 1448.36831,618.800937 1591.35846,867.59719" id="Shape"></path>
                            <path d="M3.78482024,1.70117096 C5.69986684,15.9484778 168.266045,348.102108 705.330226,264.319438 C1235.15979,181.812646 1444.96378,615.611241 1593.2735,847.608431" id="Shape"></path>
                            <path d="M3.57203728,2.1264637 C6.12543276,21.0519906 170.606658,350.441218 702.351265,270.698829 C1226.64847,192.232319 1441.55925,612.208899 1594.97577,827.407026" id="Shape"></path>
                            <path d="M3.57203728,2.55175644 C6.76378162,26.1555035 173.372836,352.567681 699.372304,277.07822 C1218.13715,202.439344 1438.15473,609.019204 1596.89081,807.418267" id="Shape"></path>
                            <path d="M3.35925433,3.18969555 C7.18934754,31.4716628 175.926232,355.119438 696.393342,283.457611 C1209.62583,212.859016 1434.7502,605.829508 1598.80586,787.216862" id="Shape"></path>
                            <path d="M3.35925433,3.61498829 C7.8276964,36.787822 178.69241,357.458548 693.414381,289.837002 C1201.3273,223.278689 1431.13289,602.639813 1600.72091,767.228103" id="Shape"></path>
                            <path d="M3.14647137,4.04028103 C8.25326232,41.8913349 181.245806,359.585012 690.435419,296.003747 C1192.81598,233.273068 1427.72836,599.237471 1602.63595,747.026698" id="Shape"></path>
                            <path d="M3.14647137,4.67822014 C8.89161119,47.2074941 184.011984,362.136768 687.456458,302.595785 C1184.30466,243.905386 1424.32383,596.260422 1604.551,727.037939" id="Shape"></path>
                            <path d="M3.14647137,5.10351288 C9.52996005,52.311007 186.778162,364.475878 684.69028,308.975176 C1176.00613,254.325059 1421.13209,593.070726 1606.67883,707.04918" id="Shape"></path>
                            <path d="M2.93368842,5.74145199 C9.95552597,57.8398126 189.331558,367.027635 681.498535,315.354567 C1167.28202,264.532084 1417.302,589.88103 1608.16831,687.060422" id="Shape"></path>
                            <path d="M2.93368842,6.16674473 C10.5938748,62.9433255 192.097736,369.154098 678.732357,321.733958 C1158.98349,274.951756 1414.11025,586.691335 1610.29614,666.859016" id="Shape"></path>
                            <path d="M2.72090546,6.59203747 C11.0194407,68.0468384 194.438349,371.493208 675.540613,328.113349 C1150.25939,285.371429 1410.49294,583.501639 1611.9984,646.870258" id="Shape"></path>
                            <path d="M2.72090546,7.22997658 C11.6577896,73.3629977 197.204527,374.044965 672.774434,334.49274 C1142.17364,295.791101 1407.3012,580.099297 1614.12623,626.668852" id="Shape"></path>
                            <path d="M2.5081225,7.65526932 C12.0833555,78.6791569 199.757923,376.171429 669.58269,340.872131 C1133.44953,305.998126 1403.68389,576.909602 1615.8285,606.680094" id="Shape"></path>
                            <path d="M2.5081225,8.29320843 C12.7217044,83.9953162 202.524101,378.723185 666.816511,347.251522 C1125.151,316.417799 1400.27936,573.719906 1617.95632,586.691335" id="Shape"></path>
                            <path d="M2.29533955,8.71850117 C13.1472703,89.098829 205.077497,381.062295 663.624767,353.630913 C1116.4269,326.837471 1396.66205,570.530211 1619.44581,566.48993" id="Shape"></path>
                            <path d="M2.29533955,9.14379391 C13.7856192,94.2023419 207.843675,383.188759 660.858589,360.010304 C1108.12836,337.044496 1393.47031,567.340515 1621.57364,546.501171" id="Shape"></path>
                            <path d="M2.29533955,9.78173302 C14.423968,99.7311475 210.609854,385.740515 658.09241,366.389696 C1099.82983,347.464169 1390.27856,564.15082 1623.70146,526.512412" id="Shape"></path>
                            <path d="M2.08255659,10.2070258 C14.849534,104.83466 213.163249,388.079625 654.900666,372.769087 C1091.10573,357.883841 1386.44847,560.961124 1625.40373,506.311007" id="Shape"></path>
                            <path d="M2.08255659,10.8449649 C15.4878828,110.15082 215.929427,390.418735 652.134487,379.148478 C1083.01997,368.090867 1383.25672,557.771429 1627.53156,486.322248" id="Shape"></path>
                            <path d="M1.86977364,11.2702576 C15.9134487,115.254333 218.482823,392.757845 648.942743,385.527869 C1074.29587,378.510539 1379.63941,554.581733 1629.02104,466.120843" id="Shape"></path>
                            <path d="M1.86977364,11.6955504 C16.5517976,120.570492 221.036218,395.096956 646.176565,391.90726 C1065.99734,388.930211 1376.44767,551.392037 1631.14887,446.132084" id="Shape"></path>
                            <path d="M1.65699068,12.3334895 C16.9773635,125.886651 223.589614,397.436066 642.98482,398.286651 C1057.27324,399.349883 1372.61758,548.202342 1632.85113,426.143326" id="Shape"></path>
                            <path d="M1.65699068,12.7587822 C17.6157124,130.990164 226.355792,399.775176 640.218642,404.666042 C1048.9747,409.556909 1369.42583,544.8 1634.97896,405.94192" id="Shape"></path>
                            <path d="M1.44420772,13.3967213 C18.2540613,136.306323 228.909188,402.326932 637.026897,411.045433 C1040.2506,419.976581 1365.80852,541.610304 1636.68123,385.953162" id="Shape"></path>
                            <path d="M1.44420772,13.8220141 C18.8924101,141.622482 231.675366,404.453396 634.260719,417.424824 C1031.95206,430.396253 1362.61678,538.420609 1638.59627,365.964403" id="Shape"></path>
                            <path d="M1.44420772,14.2473068 C19.530759,146.725995 234.441545,406.792506 631.281758,423.804215 C1023.65353,440.603279 1359.21225,535.230913 1640.51132,345.762998" id="Shape"></path>
                            <path d="M1.23142477,14.8852459 C19.9563249,152.042155 236.99494,409.344262 628.302796,430.183607 C1015.14221,451.022951 1355.59494,532.041218 1642.42636,325.774239" id="Shape"></path>
                            <path d="M1.23142477,15.3105386 C20.5946738,157.145667 239.761119,411.683372 625.323835,436.562998 C1006.63089,461.442623 1352.19041,528.851522 1644.34141,305.78548" id="Shape"></path>
                            <path d="M1.01864181,15.9484778 C21.0202397,162.674473 242.314514,414.022482 622.344874,443.155035 C998.119574,471.862295 1348.78589,525.874473 1646.25646,285.796721" id="Shape"></path>
                            <path d="M1.01864181,16.3737705 C21.6585885,167.777986 244.867909,416.361593 619.365912,449.32178 C989.608256,482.069321 1345.38136,522.472131 1648.1715,265.595316" id="Shape"></path>
                            <path d="M0.805858855,16.7990632 C22.0841545,172.881499 247.421305,418.700703 616.386951,455.701171 C981.096937,492.488993 1341.76405,519.282436 1649.87377,245.393911" id="Shape"></path>
                            <path d="M0.805858855,17.4370023 C22.7225033,178.197658 250.187483,421.039813 613.407989,462.080562 C972.585619,502.908665 1338.35952,516.09274 1651.78881,225.405152" id="Shape"></path>
                            <path d="M0.593075899,17.8622951 C23.1480692,183.513817 252.740879,423.378923 610.429028,468.459953 C964.287084,513.115691 1334.95499,512.903044 1653.70386,205.416393" id="Shape"></path>
                            <path d="M0.593075899,18.5002342 C23.7864181,188.829977 255.507057,425.930679 607.66285,475.051991 C955.988549,523.748009 1331.76325,509.713349 1655.83169,185.427635" id="Shape"></path>
                            <path d="M0.593075899,18.9255269 C24.424767,193.933489 258.273236,428.057143 604.683888,481.218735 C947.47723,533.955035 1328.14594,506.311007 1657.74674,165.22623" id="Shape"></path>
                            <path d="M0.380292943,19.3508197 C24.8503329,199.037002 260.826631,430.396253 601.704927,487.598126 C938.965912,544.162061 1324.74141,503.121311 1659.449,145.024824" id="Shape"></path>
                            <path d="M0.380292943,19.9887588 C25.4886818,204.565808 263.59281,432.948009 598.725965,493.977518 C930.454594,554.581733 1321.33688,499.931616 1661.36405,125.036066" id="Shape"></path>
                            <path d="M0.167509987,20.4140515 C25.9142477,209.669321 266.146205,435.074473 595.747004,500.356909 C921.943276,565.001405 1317.93236,496.74192 1663.27909,105.047307" id="Shape"></path>
                            <path d="M0.167509987,21.0519906 C52.5121172,407.005152 960.244208,906.511475 1665.19414,85.058548" id="Shape"></path>
                        </g>
                    </g>
                </g>
            </g>
        </g>
    </g>
</svg>
